<?xml version="1.0" encoding="UTF-8" standalone="no"?>
<!DOCTYPE svg PUBLIC "-//W3C//DTD SVG 1.1//EN" "http://www.w3.org/Graphics/SVG/1.1/DTD/svg11.dtd">
<svg width="100%" height="100%" viewBox="0 0 520 520" version="1.1" xmlns="http://www.w3.org/2000/svg" xmlns:xlink="http://www.w3.org/1999/xlink" xml:space="preserve" xmlns:serif="http://www.serif.com/" style="fill-rule:evenodd;clip-rule:evenodd;stroke-linecap:round;stroke-linejoin:round;stroke-miterlimit:1.5;">
    <g transform="matrix(1,0,0,1,-231,-285)">
        <circle cx="491" cy="545" r="260" style="fill:rgb(61,61,61);"/>
    </g>
    <g transform="matrix(0.354703,0.354703,-0.354703,0.354703,279.154,-107.473)">
        <g transform="matrix(0,0.515385,-0.515385,0,666.164,186.224)">
            <path d="M124.497,178.497L691.396,745.396" style="fill:none;stroke:rgb(246,246,246);stroke-width:159.48px;"/>
        </g>
        <g transform="matrix(0,0.515385,-0.515385,0,771.886,291.947)">
            <path d="M124.497,178.497L691.396,745.396" style="fill:none;stroke:rgb(246,246,246);stroke-width:159.48px;"/>
        </g>
        <g transform="matrix(0,0.515385,-0.515385,0,666.164,186.224)">
            <path d="M855.502,909.502L857.505,911.505" style="fill:none;stroke:rgb(246,246,246);stroke-width:159.48px;"/>
        </g>
        <g transform="matrix(0,0.515385,-0.515385,0,771.886,291.947)">
            <path d="M855.502,909.502L857.505,911.505" style="fill:none;stroke:rgb(246,246,246);stroke-width:159.48px;"/>
        </g>
        <g transform="matrix(0,0.515385,-0.515385,0,877.608,397.669)">
            <path d="M124.497,178.497L691.396,745.396" style="fill:none;stroke:rgb(246,246,246);stroke-width:159.48px;"/>
        </g>
        <g transform="matrix(0,0.515385,-0.515385,0,877.608,397.669)">
            <path d="M855.502,909.502L857.505,911.505" style="fill:none;stroke:rgb(246,246,246);stroke-width:159.48px;"/>
        </g>
    </g>
</svg>
